<mxfile host="app.diagrams.net" modified="2024-06-27T21:49:11.207Z" agent="Mozilla/5.0 (Windows NT 10.0; Win64; x64) AppleWebKit/537.36 (KHTML, like Gecko) Chrome/124.0.0.0 Safari/537.36 Edg/124.0.0.0" version="24.6.3" etag="xxkMgMAe_l8hAdpDHjIQ" type="github">
  <diagram name="Page-1" id="jrThCYsuS3wixjycTsM8">
    <mxGraphModel>
      <root>
        <mxCell id="0" />
        <mxCell id="1" parent="0" />
      </root>
    </mxGraphModel>
  </diagram>
</mxfile>
